<svg width="165" height="43" viewBox="0 0 165 43" fill="none" xmlns="http://www.w3.org/2000/svg">
<path d="M12.3082 13.4545V28H10.9872V14.6477H3.15341V28H1.82528V13.4545H12.3082ZM20.4724 28V13.4545H28.9099V14.6477H21.8006V20.1236H28.4625V21.3168H21.8006V26.8068H29.052V28H20.4724ZM36.7474 28V13.4545H41.442C42.4742 13.4545 43.336 13.6534 44.0273 14.0511C44.7233 14.4441 45.2465 14.9792 45.5969 15.6562C45.952 16.3333 46.1295 17.0956 46.1295 17.9432C46.1295 18.7907 45.9544 19.5554 45.604 20.2372C45.2536 20.9143 44.7328 21.4517 44.0415 21.8494C43.3502 22.2424 42.4908 22.4389 41.4634 22.4389H37.7702V21.2457H41.4278C42.1902 21.2457 42.8223 21.1037 43.3241 20.8196C43.826 20.5308 44.2001 20.1378 44.4463 19.6406C44.6973 19.1435 44.8227 18.5777 44.8227 17.9432C44.8227 17.3087 44.6973 16.7429 44.4463 16.2457C44.2001 15.7486 43.8237 15.358 43.317 15.0739C42.8152 14.7898 42.1783 14.6477 41.4065 14.6477H38.0756V28H36.7474ZM58.4202 15.2443H60.4017C61.4576 15.2443 62.3927 15.4834 63.2071 15.9616C64.0262 16.4399 64.6678 17.1075 65.1318 17.9645C65.5958 18.8215 65.8278 19.8158 65.8278 20.9474C65.8231 22.0838 65.5887 23.0805 65.1247 23.9375C64.6654 24.7945 64.0286 25.4645 63.2142 25.9474C62.4045 26.4257 61.4718 26.6648 60.4159 26.6648H58.4273C57.3667 26.6648 56.4268 26.4257 55.6077 25.9474C54.7933 25.4692 54.1541 24.8016 53.6901 23.9446C53.226 23.0876 52.994 22.0909 52.994 20.9545C52.994 19.8277 53.226 18.8357 53.6901 17.9787C54.1541 17.1217 54.7933 16.4517 55.6077 15.9688C56.4268 15.4858 57.3643 15.2443 58.4202 15.2443ZM58.4273 16.4375C57.5419 16.4375 56.7914 16.6316 56.1759 17.0199C55.5651 17.4034 55.101 17.9384 54.7838 18.625C54.4713 19.3068 54.3174 20.0928 54.3222 20.983C54.3222 21.8589 54.4784 22.6354 54.7909 23.3125C55.1081 23.9848 55.5698 24.5128 56.1759 24.8963C56.7866 25.2798 57.5371 25.4716 58.4273 25.4716H60.4088C61.2942 25.4716 62.04 25.2798 62.646 24.8963C63.2568 24.5128 63.7185 23.9825 64.031 23.3054C64.3435 22.6236 64.4997 21.8376 64.4997 20.9474C64.4997 20.0668 64.3411 19.2879 64.0239 18.6108C63.7114 17.929 63.2497 17.3963 62.6389 17.0128C62.0281 16.6293 61.2777 16.4375 60.3875 16.4375H58.4273ZM60.0892 13.1989V28.5966H58.7611V13.1989H60.0892ZM85.3628 20.7273C85.3628 22.2424 85.0929 23.5611 84.5531 24.6832C84.0134 25.8007 83.27 26.6671 82.323 27.2827C81.3808 27.8935 80.2965 28.1989 79.0702 28.1989C77.8438 28.1989 76.7572 27.8935 75.8102 27.2827C74.868 26.6671 74.127 25.8007 73.5872 24.6832C73.0522 23.5611 72.7847 22.2424 72.7847 20.7273C72.7847 19.2121 73.0522 17.8958 73.5872 16.7784C74.127 15.6562 74.8704 14.7898 75.8173 14.179C76.7643 13.5634 77.8486 13.2557 79.0702 13.2557C80.2965 13.2557 81.3808 13.5634 82.323 14.179C83.27 14.7898 84.0134 15.6562 84.5531 16.7784C85.0929 17.8958 85.3628 19.2121 85.3628 20.7273ZM84.0702 20.7273C84.0702 19.4252 83.8524 18.3101 83.4168 17.3821C82.9812 16.4493 82.3869 15.7367 81.6341 15.2443C80.8812 14.7519 80.0266 14.5057 79.0702 14.5057C78.1185 14.5057 77.2662 14.7519 76.5134 15.2443C75.7605 15.7367 75.1639 16.447 74.7236 17.375C74.288 18.303 74.0702 19.4205 74.0702 20.7273C74.0702 22.0294 74.288 23.1444 74.7236 24.0724C75.1592 25.0005 75.7534 25.7131 76.5062 26.2102C77.2591 26.7027 78.1137 26.9489 79.0702 26.9489C80.0266 26.9489 80.8812 26.7027 81.6341 26.2102C82.3917 25.7178 82.9883 25.0076 83.4239 24.0795C83.8595 23.1468 84.0749 22.0294 84.0702 20.7273ZM92.9748 13.4545H94.5089L99.7859 26.125H99.9137L105.191 13.4545H106.725V28H105.475V16.2599H105.361L100.453 28H99.2461L94.3384 16.2599H94.2248V28H92.9748V13.4545ZM115.013 28H113.621L118.912 13.4545H120.333L125.624 28H124.232L119.672 15.1804H119.573L115.013 28ZM116.015 22.4247H123.231V23.6179H116.015V22.4247ZM132.517 28V13.4545H133.845V20.1236H142.098V13.4545H143.426V28H142.098V21.3168H133.845V28H132.517ZM163.075 18H161.739C161.64 17.5028 161.46 17.0436 161.2 16.6222C160.944 16.196 160.622 15.8243 160.234 15.5071C159.845 15.1899 159.405 14.9437 158.913 14.7685C158.42 14.5933 157.888 14.5057 157.315 14.5057C156.396 14.5057 155.558 14.7448 154.8 15.223C154.048 15.7012 153.444 16.4044 152.989 17.3324C152.54 18.2557 152.315 19.3873 152.315 20.7273C152.315 22.0767 152.54 23.2131 152.989 24.1364C153.444 25.0597 154.048 25.7604 154.8 26.2386C155.558 26.7121 156.396 26.9489 157.315 26.9489C157.888 26.9489 158.42 26.8613 158.913 26.6861C159.405 26.5109 159.845 26.267 160.234 25.9545C160.622 25.6373 160.944 25.2656 161.2 24.8395C161.46 24.4134 161.64 23.9517 161.739 23.4545H163.075C162.956 24.1222 162.734 24.7448 162.407 25.3224C162.085 25.8954 161.673 26.3973 161.171 26.8281C160.674 27.259 160.101 27.5952 159.452 27.8366C158.804 28.0781 158.091 28.1989 157.315 28.1989C156.093 28.1989 155.009 27.8935 154.062 27.2827C153.115 26.6671 152.372 25.8007 151.832 24.6832C151.297 23.5658 151.029 22.2472 151.029 20.7273C151.029 19.2074 151.297 17.8887 151.832 16.7713C152.372 15.6539 153.115 14.7898 154.062 14.179C155.009 13.5634 156.093 13.2557 157.315 13.2557C158.091 13.2557 158.804 13.3764 159.452 13.6179C160.101 13.8546 160.674 14.1908 161.171 14.6264C161.673 15.0573 162.085 15.5592 162.407 16.1321C162.734 16.705 162.956 17.3277 163.075 18Z" fill="white"/>
<line x1="94" y1="0.5" y2="0.5" stroke="white" stroke-opacity="0.5"/>
<line x1="165" y1="42.5" x2="71" y2="42.5" stroke="white" stroke-opacity="0.5"/>
</svg>
